<?xml version="1.0" encoding="utf-8"?>
<!-- Generator: Adobe Illustrator 16.0.0, SVG Export Plug-In . SVG Version: 6.00 Build 0)  -->
<!DOCTYPE svg PUBLIC "-//W3C//DTD SVG 1.1//EN" "http://www.w3.org/Graphics/SVG/1.1/DTD/svg11.dtd">
<svg version="1.1" id="Layer_1" xmlns="http://www.w3.org/2000/svg" xmlns:xlink="http://www.w3.org/1999/xlink" x="0px" y="0px"
	 width="381.6px" height="150px" viewBox="34.2 0 381.6 150" enable-background="new 34.2 0 381.6 150" xml:space="preserve">
<polygon fill="#1D1D2C" points="392.041,38.403 389.319,38.403 389.319,36.297 397.59,36.297 397.59,38.403 394.868,38.403 
	394.868,45.981 392.041,45.981 "/>
<polygon fill="#1D1D2C" points="398.127,36.297 400.879,36.297 403.284,41.214 405.676,36.297 408.413,36.297 408.413,45.981 
	405.586,45.981 405.586,41.139 404.037,44.327 402.518,44.327 400.953,41.139 400.953,45.981 398.127,45.981 "/>
<path fill="#1D1D2C" d="M243.805,36.264h-18.947c-4.422,0-8.662,1.75-11.797,4.866l-20.955,22.108V6.399h-4.304
	c-8.804,0-15.941,7.137-15.941,15.942v94.344h3.782c9.092,0,16.463-7.37,16.463-16.464V88.62l8.408-8.408l21.689,30.986
	c2.518,3.448,6.529,5.486,10.799,5.486h15.786l-34.571-49.242L243.805,36.264z"/>
<path fill="#1D1D2C" d="M258.273,6.399h-9.176v97.356c0,7.142,5.789,12.93,12.93,12.93h7.315V17.468
	C269.343,11.354,264.387,6.399,258.273,6.399"/>
<path fill="#1D1D2C" d="M289.582,6.399c-3.426,0-6.307,1.168-8.644,3.504c-2.335,2.336-3.503,5.166-3.503,8.487
	c0,3.426,1.168,6.306,3.503,8.642c2.337,2.336,5.218,3.504,8.644,3.504c3.32,0,6.151-1.167,8.486-3.504
	c2.336-2.336,3.503-5.216,3.503-8.642c0-3.322-1.167-6.151-3.503-8.487C295.733,7.567,292.902,6.399,289.582,6.399"/>
<path fill="#1D1D2C" d="M381.303,56.309c-3.635-6.176-8.516-11.056-14.639-14.639c-6.126-3.582-12.823-5.373-20.088-5.373
	c-7.268,0-13.964,1.791-20.088,5.373c-6.128,3.583-10.979,8.462-14.562,14.639c-3.581,6.179-5.372,12.9-5.372,20.166v70.076h6.303
	c7.785,0,14.097-6.312,14.097-14.098v-21.72c5.502,3.947,12.043,5.918,19.622,5.918c7.265,0,13.962-1.791,20.088-5.373
	c6.123-3.581,11.004-8.459,14.639-14.638c3.633-6.176,5.449-12.898,5.449-20.166C386.752,69.209,384.936,62.487,381.303,56.309
	 M360.902,91.035c-3.736,3.894-8.463,5.84-14.17,5.84c-5.712,0-10.488-1.946-14.327-5.84c-3.842-3.893-5.762-8.745-5.762-14.561
	c0-5.812,1.92-10.667,5.762-14.56c3.839-3.894,8.615-5.84,14.327-5.84c5.707,0,10.434,1.947,14.17,5.84
	c3.738,3.893,5.606,8.748,5.606,14.56C366.509,82.29,364.641,87.143,360.902,91.035"/>
<path fill="#1D1D2C" d="M292.598,36.264H279.77c-3.182,0-5.761,2.58-5.761,5.762v10.635h5.451v64.024h9.208
	c6.094,0,11.035-4.94,11.035-11.035V36.264h-5.064H292.598z"/>
<path fill="#00E600" d="M110.171,58.814c-8.09-5.879-19.59-7.217-28.227-0.165c0,0,6.401,2.863,11.558,10.408
	c5.157,7.545,6.347,13.851,6.347,18.123v9.499h-3.977c-19.057,0-34.505-15.448-34.505-34.505V26.622h35.617
	c19.022,0,34.441,15.42,34.441,34.441V96.68v4.197c0,8.834,7.16,15.993,15.992,15.993h4.198V61.063
	c0-30.172-24.458-54.631-54.63-54.631H41.177v55.743c0,30.207,24.488,54.695,54.695,54.695h24.167v-13.387V96.68V84.385
	c0-1.713-0.32-5.725-0.32-5.725S118.76,65.057,110.171,58.814"/>
</svg>
