<svg width="576" height="285" viewBox="0 0 576 285" fill="none" xmlns="http://www.w3.org/2000/svg">
<mask id="mask0_5986_31" style="mask-type:alpha" maskUnits="userSpaceOnUse" x="-10" y="0" width="606" height="331">
<path d="M94.4767 118.886C47.5588 117.226 2.94296 195.21 -9.1315 227.727V330.5H595.719V74C539.744 71.5 522.042 15.1051 479.134 15.1051C436.227 15.1051 397.488 96.7452 375.639 139.641C357.7 177.832 334.816 185.996 325.616 185.304C282.838 186.964 250.295 101.589 239.37 58.6932C229.711 10.5386 218.836 0.576439 213.496 0.576497C204.538 0.545452 191.072 14.6905 177.273 62.8443C163.474 110.998 141.625 124.42 132.425 125.112C119.557 126.08 104.251 118.886 94.4767 118.886Z" fill="url(#paint0_linear_5986_31)"/>
</mask>
<g mask="url(#mask0_5986_31)">
<path opacity="0.1" d="M94.4767 118.886C47.5588 117.226 2.94296 195.21 -9.1315 227.727V330.5H595.719V74C539.744 71.5 522.042 15.1051 479.134 15.1051C436.227 15.1051 397.488 96.7452 375.639 139.641C357.7 177.832 334.816 185.996 325.616 185.304C282.838 186.964 250.295 101.589 239.37 58.6932C229.711 10.5386 218.836 0.576439 213.496 0.576497C204.538 0.545452 191.072 14.6905 177.273 62.8443C163.474 110.998 141.625 124.42 132.425 125.112C119.557 126.08 104.251 118.886 94.4767 118.886Z" fill="#3751FF"/>
</g>
<defs>
<linearGradient id="paint0_linear_5986_31" x1="576" y1="170" x2="-1.99997" y2="170" gradientUnits="userSpaceOnUse">
<stop stop-color="white" stop-opacity="0"/>
<stop offset="1" stop-color="white"/>
</linearGradient>
</defs>
</svg>
